<svg xmlns:mydata="http://www.w3.org/2000/svg" mydata:contrastcolor="e6f9f3" mydata:template="Contrast" mydata:presentation="2.5" mydata:layouttype="undefined" mydata:specialfontid="undefined" mydata:id1="594" mydata:id2="000" mydata:companyname="Quadrobble" mydata:companytagline="für Nadine" version="1.1" xmlns="http://www.w3.org/2000/svg" xmlns:xlink="http://www.w3.org/1999/xlink" viewBox="65 200.43550176613292 420 69.12899646773417" class="svg-third-tile" style="width: 28%; inset: auto 50px 50px auto; filter: drop-shadow(rgba(0, 0, 0, 0.6) 3px 2px 4px);"><g fill="none" fill-rule="nonzero" stroke="none" stroke-width="1" stroke-linecap="butt" stroke-linejoin="miter" stroke-miterlimit="10" stroke-dasharray="" stroke-dashoffset="0" font-family="none" font-weight="none" font-size="none" text-anchor="none" style="mix-blend-mode: normal; fill: rgb(255, 255, 255);"><g data-paper-data="{&quot;isGlobalGroup&quot;:true,&quot;bounds&quot;:{&quot;x&quot;:65,&quot;y&quot;:200.43550176613292,&quot;width&quot;:420,&quot;height&quot;:69.12899646773417}}" style="fill: rgb(255, 255, 255);"><g data-paper-data="{&quot;isSecondaryText&quot;:true}" fill="#2e008b" style="fill: rgb(255, 255, 255);"><path d="M165.02156,269.35363v-12.36523h8.34189v1.4592h-6.70556v3.82934h5.80305v1.4592h-5.80305v5.61749z" data-paper-data="{&quot;glyphName&quot;:&quot;F&quot;,&quot;glyphIndex&quot;:0,&quot;firstGlyphOfWord&quot;:true,&quot;word&quot;:1}" style="fill: rgb(255, 255, 255);"></path><path d="M197.03316,256.9884h1.63633v7.14417c0,1.24271 -0.14058,2.22957 -0.42173,2.96057c-0.28116,0.731 -0.78864,1.32565 -1.52246,1.78393c-0.73382,0.45828 -1.69677,0.68743 -2.88888,0.68743c-1.15836,0 -2.10586,-0.19962 -2.84248,-0.59886c-0.73663,-0.39924 -1.26239,-0.97702 -1.57728,-1.73333c-0.31489,-0.75631 -0.47234,-1.78956 -0.47234,-3.09974v-7.14417h1.63633v7.13573c0,1.07401 0.09981,1.86547 0.29943,2.37436c0.19962,0.50889 0.54263,0.9011 1.02903,1.17664c0.4864,0.27553 1.08104,0.4133 1.78393,0.4133c1.20335,0 2.06087,-0.27272 2.57258,-0.81816c0.5117,-0.54544 0.76756,-1.59415 0.76756,-3.14613zM191.41567,256.22928v-1.72911h1.58572v1.72911zM194.5618,256.22928v-1.72911h1.58572v1.72911z" data-paper-data="{&quot;glyphName&quot;:&quot;Ü&quot;,&quot;glyphIndex&quot;:1,&quot;word&quot;:1}" style="fill: rgb(255, 255, 255);"></path><path d="M216.09729,269.35363v-12.36523h5.48254c1.10213,0 1.93997,0.11106 2.51353,0.33317c0.57356,0.22211 1.03184,0.61433 1.37485,1.17664c0.34301,0.56231 0.51452,1.18367 0.51452,1.86406c0,0.87721 -0.28397,1.61665 -0.8519,2.21832c-0.56793,0.60167 -1.44514,0.98405 -2.63162,1.14712c0.43298,0.20806 0.76193,0.4133 0.98686,0.61573c0.47796,0.4386 0.93063,0.98686 1.35798,1.64476l2.15084,3.36543h-2.05806l-1.63633,-2.57258c-0.47796,-0.74225 -0.87158,-1.31019 -1.18085,-1.7038c-0.30927,-0.39362 -0.58621,-0.66915 -0.83082,-0.8266c-0.24461,-0.15745 -0.49343,-0.2671 -0.74647,-0.32895c-0.18556,-0.03936 -0.48921,-0.05904 -0.91094,-0.05904h-1.8978v5.49097zM217.73361,262.44563h3.51726c0.74787,0 1.33268,-0.07732 1.75441,-0.23195c0.42173,-0.15464 0.74225,-0.40205 0.96155,-0.74225c0.2193,-0.3402 0.32895,-0.70992 0.32895,-1.10916c0,-0.5848 -0.21227,-1.06558 -0.63682,-1.44233c-0.42455,-0.37675 -1.0951,-0.56512 -2.01167,-0.56512h-3.91369z" data-paper-data="{&quot;glyphName&quot;:&quot;R&quot;,&quot;glyphIndex&quot;:2,&quot;lastGlyphOfWord&quot;:true,&quot;word&quot;:1}" style="fill: rgb(255, 255, 255);"></path><path d="M256.38907,269.35363v-12.36523h1.6785l6.4947,9.70831v-9.70831h1.56885v12.36523h-1.6785l-6.4947,-9.71674v9.71674z" data-paper-data="{&quot;glyphName&quot;:&quot;N&quot;,&quot;glyphIndex&quot;:3,&quot;firstGlyphOfWord&quot;:true,&quot;word&quot;:2}" style="fill: rgb(255, 255, 255);"></path><path d="M281.52782,269.35363l4.74872,-12.36523h1.76285l5.0608,12.36523h-1.86406l-1.44233,-3.74499h-5.17045l-1.35798,3.74499zM285.09569,264.27596h4.19203l-1.2905,-3.42448c-0.39362,-1.04028 -0.68602,-1.89499 -0.87721,-2.56414c-0.15745,0.79286 -0.37956,1.5801 -0.66634,2.36171z" data-paper-data="{&quot;glyphName&quot;:&quot;A&quot;,&quot;glyphIndex&quot;:4,&quot;word&quot;:2}" style="fill: rgb(255, 255, 255);"></path><path d="M308.51631,269.35363v-12.36523h4.25951c0.96155,0 1.69537,0.05904 2.20145,0.17713c0.70851,0.16307 1.313,0.45828 1.81345,0.88564c0.65228,0.55107 1.14009,1.25536 1.46342,2.11289c0.32333,0.85753 0.48499,1.83735 0.48499,2.93948c0,0.93906 -0.10965,1.77128 -0.32895,2.49666c-0.2193,0.72538 -0.50046,1.32565 -0.84347,1.8008c-0.34301,0.47515 -0.71835,0.84909 -1.12603,1.12181c-0.40768,0.27272 -0.8997,0.47937 -1.47607,0.61995c-0.57637,0.14058 -1.23849,0.21087 -1.98637,0.21087zM310.15264,267.89443h2.64005c0.81535,0 1.45498,-0.07591 1.91889,-0.22774c0.46391,-0.15182 0.83363,-0.3655 1.10916,-0.64104c0.38799,-0.38799 0.69024,-0.90954 0.90673,-1.56463c0.21649,-0.65509 0.32473,-1.44936 0.32473,-2.38279c0,-1.29332 -0.21227,-2.2872 -0.63682,-2.98166c-0.42455,-0.69445 -0.94047,-1.15977 -1.54776,-1.39594c-0.4386,-0.16869 -1.1443,-0.25304 -2.1171,-0.25304h-2.59788z" data-paper-data="{&quot;glyphName&quot;:&quot;D&quot;,&quot;glyphIndex&quot;:5,&quot;word&quot;:2}" style="fill: rgb(255, 255, 255);"></path><path d="M332.88776,269.35363v-12.36523h1.63633v12.36523z" data-paper-data="{&quot;glyphName&quot;:&quot;I&quot;,&quot;glyphIndex&quot;:6,&quot;word&quot;:2}" style="fill: rgb(255, 255, 255);"></path><path d="M349.0746,269.35363v-12.36523h1.6785l6.4947,9.70831v-9.70831h1.56885v12.36523h-1.6785l-6.4947,-9.71674v9.71674z" data-paper-data="{&quot;glyphName&quot;:&quot;N&quot;,&quot;glyphIndex&quot;:7,&quot;word&quot;:2}" style="fill: rgb(255, 255, 255);"></path><path d="M375.75091,269.35363v-12.36523h8.94075v1.4592h-7.30443v3.78717h6.84052v1.45076h-6.84052v4.2089h7.59121v1.4592z" data-paper-data="{&quot;glyphName&quot;:&quot;E&quot;,&quot;glyphIndex&quot;:8,&quot;lastGlyphOfWord&quot;:true,&quot;word&quot;:2}" style="fill: rgb(255, 255, 255);"></path></g><g data-paper-data="{&quot;isPrimaryText&quot;:true}" fill="#00c389" style="fill: rgb(255, 255, 255);"><path d="M89.57803,230.36385l1.92277,1.58838c-0.05573,0 -0.0836,0.02787 -0.0836,0.0836zM84.8965,233.79139h0.83599c0.61306,0.50159 1.57444,1.33758 2.88416,2.50796c1.30971,1.17038 2.2711,2.00637 2.88416,2.50796c-0.22293,0.11146 -0.36226,0.1672 -0.41799,0.1672c-1.8949,0.66879 -3.98487,1.00318 -6.2699,1.00318c-3.00955,0 -5.68471,-0.52946 -8.02548,-1.58838c-2.3965,-1.00318 -4.48647,-2.3965 -6.2699,-4.17994c-1.72771,-1.72771 -3.09315,-3.81768 -4.09634,-6.2699c-0.94745,-2.50796 -1.42118,-5.04379 -1.42118,-7.60748c0,-2.78662 0.47373,-5.32245 1.42118,-7.60748c1.05892,-2.56369 2.45223,-4.6258 4.17994,-6.18631c1.72771,-1.83917 3.81768,-3.26035 6.2699,-4.26354c2.34076,-1.05892 5.04379,-1.58838 8.10908,-1.58838c2.95382,0 5.62898,0.50159 8.02548,1.50478c2.56369,1.17038 4.65366,2.59156 6.2699,4.26354c1.78344,1.8949 3.12102,3.95701 4.01274,6.18631c1.00318,2.45223 1.50478,4.98806 1.50478,7.60748c0,2.17357 -0.33439,4.26354 -1.00318,6.2699c-0.66879,2.0621 -1.61624,3.90127 -2.84236,5.51752l3.84554,3.26035l-4.26354,4.68153l-9.11226,-7.94188h0.0836l-1.92277,-1.58838l-4.51433,-4.01274l-0.0836,0.0836l-0.0836,-0.0836l4.34713,-4.84873l6.6043,5.93551c0.66879,-1.11465 1.14252,-2.2293 1.42118,-3.34395c0.33439,-1.22612 0.50159,-2.50796 0.50159,-3.84554c0,-1.78344 -0.30653,-3.53901 -0.91959,-5.26672c-0.72452,-1.67197 -1.61624,-3.09315 -2.67516,-4.26354c-1.17038,-1.28185 -2.53583,-2.28503 -4.09634,-3.00955c-1.78344,-0.72452 -3.53901,-1.08678 -5.26672,-1.08678c-1.95064,0 -3.67834,0.36226 -5.18312,1.08678c-1.61624,0.78025 -2.98169,1.75557 -4.09634,2.92596c-1.17038,1.28185 -2.03424,2.70303 -2.59156,4.26354c-0.61306,1.56051 -0.91959,3.31608 -0.91959,5.26672c0,2.00637 0.30653,3.76194 0.91959,5.26672c0.61306,1.67197 1.50478,3.09315 2.67516,4.26354c1.11465,1.28185 2.4801,2.25717 4.09634,2.92596c1.50478,0.72452 3.23248,1.08678 5.18312,1.08678zM85.06369,226.43471l4.51433,3.92914l-4.59793,-3.84554z" data-paper-data="{&quot;glyphName&quot;:&quot;Q&quot;,&quot;glyphIndex&quot;:0,&quot;firstGlyphOfWord&quot;:true,&quot;word&quot;:1}" style="fill: rgb(255, 255, 255);"></path><path d="M137.4801,200.5191h6.8551v22.40446c0,2.95382 -0.41799,5.51752 -1.25398,7.69108c-0.72452,2.11783 -1.83917,3.98487 -3.34395,5.60111c-1.50478,1.44904 -3.28822,2.53583 -5.35032,3.26035c-1.00318,0.39013 -2.17357,0.66879 -3.51115,0.83599v-6.5207c1.67197,-0.50159 2.98169,-1.28185 3.92914,-2.34076c1.78344,-1.78344 2.67516,-4.51433 2.67516,-8.19268zM118.00159,200.6027h-6.7715v22.40446c0,3.12102 0.39013,5.68471 1.17038,7.69108c0.72452,2.2293 1.86704,4.06847 3.42755,5.51752c1.39331,1.44904 3.14889,2.56369 5.26672,3.34395c1.39331,0.44586 2.56369,0.72452 3.51115,0.83599v-6.6043c-1.56051,-0.44586 -2.87022,-1.19825 -3.92914,-2.25717c-1.78344,-1.8949 -2.67516,-4.6258 -2.67516,-8.19268z" data-paper-data="{&quot;glyphName&quot;:&quot;U&quot;,&quot;glyphIndex&quot;:1,&quot;word&quot;:1}" style="fill: rgb(255, 255, 255);"></path><path d="M181.95462,240.39569l-6.18631,-16.05096l-8.44347,-23.82564h7.60748l14.54618,39.87659zM151.19029,240.39569l12.45621,-30.76433l3.59475,9.53025l-8.69427,21.23408z" data-paper-data="{&quot;glyphName&quot;:&quot;A&quot;,&quot;glyphIndex&quot;:2,&quot;word&quot;:1}" style="fill: rgb(255, 255, 255);"></path><path d="M227.01433,228.35748c1.05892,-2.34076 1.58838,-4.96019 1.58838,-7.85828c0,-2.67516 -0.52946,-5.29459 -1.58838,-7.85828c-1.00318,-2.50796 -2.45223,-4.6258 -4.34713,-6.3535c-1.95064,-1.8949 -4.2078,-3.31608 -6.7715,-4.26354c-2.73089,-1.05892 -5.57325,-1.58838 -8.52707,-1.58838h-9.27946v6.3535h9.19586c2.0621,0 3.98487,0.33439 5.76831,1.00318c1.78344,0.72452 3.23248,1.67197 4.34713,2.84236c1.22612,1.11465 2.17357,2.53583 2.84236,4.26354c0.66879,1.67197 1.00318,3.48328 1.00318,5.43392c0,2.00637 -0.33439,3.84554 -1.00318,5.51752c-0.66879,1.67197 -1.61624,3.12102 -2.84236,4.34713c-1.22612,1.22612 -2.67516,2.17357 -4.34713,2.84236c-1.72771,0.66879 -3.65048,1.00318 -5.76831,1.00318h-9.19586v6.3535h9.27946c3.17675,0 6.04697,-0.50159 8.61067,-1.50478c2.56369,-1.00318 4.79299,-2.3965 6.6879,-4.17994c1.83917,-1.67197 3.28822,-3.78981 4.34713,-6.3535z" data-paper-data="{&quot;glyphName&quot;:&quot;D&quot;,&quot;glyphIndex&quot;:3,&quot;word&quot;:1}" style="fill: rgb(255, 255, 255);"></path><path d="M272.99363,240.39569v0h-8.27627l-9.78105,-13.87739h-8.77787v13.87739h-6.93869v-20.06369h17.22134c2.56369,0 4.57006,-0.61306 6.01911,-1.83917c1.44904,-1.17038 2.17357,-2.78662 2.17357,-4.84873c0,-2.2293 -0.72452,-3.90127 -2.17357,-5.01592c-1.44904,-1.11465 -3.48328,-1.67197 -6.10271,-1.67197h-17.13774v-6.3535h17.72293c2.17357,0 4.23567,0.30653 6.18631,0.91959c1.8949,0.61306 3.45541,1.44904 4.68153,2.50796c1.28185,1.11465 2.25717,2.42436 2.92596,3.92914c0.66879,1.56051 1.00318,3.31608 1.00318,5.26672c0,1.67197 -0.2508,3.17675 -0.75239,4.51433c-0.39013,1.22612 -1.03105,2.36863 -1.92277,3.42755c-0.78025,0.94745 -1.78344,1.81131 -3.00955,2.59156c-1.11465,0.61306 -2.3965,1.14252 -3.84554,1.58838z" data-paper-data="{&quot;glyphName&quot;:&quot;R&quot;,&quot;glyphIndex&quot;:4,&quot;word&quot;:1}" style="fill: rgb(255, 255, 255);"></path><path d="M296.06688,234.04219v6.3535c-2.00637,-0.27866 -3.76194,-0.75239 -5.26672,-1.42118c-2.3965,-1.00318 -4.48647,-2.42436 -6.2699,-4.26354c-1.78344,-1.78344 -3.12102,-3.87341 -4.01274,-6.2699c-1.00318,-2.3965 -1.50478,-4.96019 -1.50478,-7.69108v-0.2508v-0.1672c0,-2.67516 0.50159,-5.23885 1.50478,-7.69108c1.00318,-2.45223 2.36863,-4.57006 4.09634,-6.3535c1.72771,-1.78344 3.81768,-3.20462 6.2699,-4.26354c1.50478,-0.66879 3.23248,-1.14252 5.18312,-1.42118v6.2699c-0.66879,0.11146 -1.47691,0.39013 -2.42436,0.83599c-1.56051,0.66879 -2.89809,1.64411 -4.01274,2.92596c-1.05892,1.05892 -1.95064,2.4801 -2.67516,4.26354c-0.61306,1.72771 -0.91959,3.51115 -0.91959,5.35032v0.2508v0.1672c0,1.78344 0.30653,3.53901 0.91959,5.26672c0.66879,1.72771 1.56051,3.17675 2.67516,4.34713c1.17038,1.28185 2.53583,2.28503 4.09634,3.00955c0.72452,0.33439 1.50478,0.58519 2.34076,0.75239zM318.80573,220.4992v0.1672c0,2.67516 -0.50159,5.23885 -1.50478,7.69108c-0.89172,2.28503 -2.25717,4.40287 -4.09634,6.3535c-1.8949,1.8949 -3.98487,3.31608 -6.2699,4.26354c-1.67197,0.72452 -3.34395,1.19825 -5.01592,1.42118v-6.3535c0.78025,-0.1672 1.53264,-0.41799 2.25717,-0.75239c1.56051,-0.66879 2.89809,-1.64411 4.01274,-2.92596c1.05892,-1.05892 1.95064,-2.4801 2.67516,-4.26354c0.61306,-1.72771 0.91959,-3.51115 0.91959,-5.35032v-0.2508v-0.1672c0,-1.78344 -0.30653,-3.53901 -0.91959,-5.26672c-0.66879,-1.72771 -1.56051,-3.17675 -2.67516,-4.34713c-1.17038,-1.28185 -2.53583,-2.28503 -4.09634,-3.00955c-0.27866,-0.11146 -0.66879,-0.2508 -1.17038,-0.41799l-1.00318,-0.33439v-6.3535c2.00637,0.27866 3.70621,0.75239 5.09952,1.42118c2.45223,1.00318 4.51433,2.3965 6.18631,4.17994c1.72771,1.78344 3.09315,3.90127 4.09634,6.3535c1.00318,2.3965 1.50478,4.96019 1.50478,7.69108z" data-paper-data="{&quot;glyphName&quot;:&quot;O&quot;,&quot;glyphIndex&quot;:5,&quot;word&quot;:1}" style="fill: rgb(255, 255, 255);"></path><path d="M357.34475,225.84951c0.33439,1.00318 0.50159,2.20143 0.50159,3.59475c0,1.78344 -0.33439,3.34395 -1.00318,4.68153c-0.83599,1.44904 -1.83917,2.59156 -3.00955,3.42755c-1.17038,0.83599 -2.70303,1.53264 -4.59793,2.08997c-1.83917,0.50159 -3.84554,0.75239 -6.01911,0.75239h-16.05096v-6.18631h16.13455c2.34076,0 4.2078,-0.47373 5.60111,-1.42118c1.33758,-0.94745 2.00637,-2.3129 2.00637,-4.09634c0,-1.67197 -0.66879,-3.00955 -2.00637,-4.01274c-1.39331,-0.94745 -3.42755,-1.42118 -6.10271,-1.42118h-15.63296v-5.85191h14.12818c2.2293,0 4.0406,-0.44586 5.43392,-1.33758c1.33758,-0.83599 2.00637,-2.20143 2.00637,-4.09634c0,-1.67197 -0.58519,-2.95382 -1.75557,-3.84554c-1.33758,-0.89172 -3.06529,-1.33758 -5.18312,-1.33758h-14.62978v-6.18631h15.46576c4.01274,0 7.18949,0.91959 9.53025,2.75876c2.34076,1.83917 3.51115,4.31927 3.51115,7.44029c0,1.17038 -0.1672,2.25717 -0.50159,3.26035c-0.33439,0.94745 -0.75239,1.75557 -1.25398,2.42436c-0.39013,0.61306 -0.97532,1.25398 -1.75557,1.92277c-0.78025,0.50159 -1.50478,0.94745 -2.17357,1.33758c0.94745,0.33439 2.03424,0.80812 3.26035,1.42118c1.11465,0.72452 1.92277,1.36545 2.42436,1.92277c0.72452,0.78025 1.28185,1.69984 1.67197,2.75876z" data-paper-data="{&quot;glyphName&quot;:&quot;B&quot;,&quot;glyphIndex&quot;:6,&quot;word&quot;:1}" style="fill: rgb(255, 255, 255);"></path><path d="M400.14729,225.84951c0.33439,1.00318 0.50159,2.20143 0.50159,3.59475c0,1.78344 -0.33439,3.34395 -1.00318,4.68153c-0.83599,1.44904 -1.83917,2.59156 -3.00955,3.42755c-1.17038,0.83599 -2.70303,1.53264 -4.59793,2.08997c-1.83917,0.50159 -3.84554,0.75239 -6.01911,0.75239h-16.05096v-6.18631h16.13455c2.34076,0 4.2078,-0.47373 5.60111,-1.42118c1.33758,-0.94745 2.00637,-2.3129 2.00637,-4.09634c0,-1.67197 -0.66879,-3.00955 -2.00637,-4.01274c-1.39331,-0.94745 -3.42755,-1.42118 -6.10271,-1.42118h-15.63296v-5.85191h14.12818c2.2293,0 4.0406,-0.44586 5.43392,-1.33758c1.33758,-0.83599 2.00637,-2.20143 2.00637,-4.09634c0,-1.67197 -0.58519,-2.95382 -1.75557,-3.84554c-1.33758,-0.89172 -3.06529,-1.33758 -5.18312,-1.33758h-14.62978v-6.18631h15.46576c4.01274,0 7.18949,0.91959 9.53025,2.75876c2.34076,1.83917 3.51115,4.31927 3.51115,7.44029c0,1.17038 -0.1672,2.25717 -0.50159,3.26035c-0.33439,0.94745 -0.75239,1.75557 -1.25398,2.42436c-0.39013,0.61306 -0.97532,1.25398 -1.75557,1.92277c-0.78025,0.50159 -1.50478,0.94745 -2.17357,1.33758c0.94745,0.33439 2.03424,0.80812 3.26035,1.42118c1.11465,0.72452 1.92277,1.36545 2.42436,1.92277c0.72452,0.78025 1.28185,1.69984 1.67197,2.75876z" data-paper-data="{&quot;glyphName&quot;:&quot;B&quot;,&quot;glyphIndex&quot;:7,&quot;word&quot;:1}" style="fill: rgb(255, 255, 255);"></path><path d="M413.43949,200.6027v39.79299h27.75478v-6.3535h-20.89968v-33.43949z" data-paper-data="{&quot;glyphName&quot;:&quot;L&quot;,&quot;glyphIndex&quot;:8,&quot;word&quot;:1}" style="fill: rgb(255, 255, 255);"></path><path d="M455.23885,200.6027v6.3535h29.76115v-6.3535zM455.23885,234.04219v6.3535h29.67755v-6.3535zM455.23885,217.15525v6.2699h26.83519v-6.2699z" data-paper-data="{&quot;glyphName&quot;:&quot;E&quot;,&quot;glyphIndex&quot;:9,&quot;lastGlyphOfWord&quot;:true,&quot;word&quot;:1}" style="fill: rgb(255, 255, 255);"></path></g></g></g></svg>